<svg width="120" height="120" fill="none" xmlns="http://www.w3.org/2000/svg">
    <rect x="2.5" y="2.5" width="115" height="115" rx="17.5" fill="#fff" stroke="#00B9AE" stroke-width="5" />
    <path d="M40 90c0 5.523-4.477 10-10 10s-10-4.477-10-10 4.477-10 10-10 10 4.477 10 10z" fill="#00B9AE" />
    <path d="M40 90c0 5.523-4.477 10-10 10s-10-4.477-10-10 4.477-10 10-10 10 4.477 10 10zM100 90c0 5.523-4.477 10-10 10s-10-4.477-10-10 4.477-10 10-10 10 4.477 10 10z" fill="#00B9AE" />
    <path d="M100 90c0 5.523-4.477 10-10 10s-10-4.477-10-10 4.477-10 10-10 10 4.477 10 10z" fill="#00B9AE" />
    <circle cx="30" cy="30" r="10" fill="#00B9AE" />
    <circle cx="90" cy="30" r="10" fill="#00B9AE" />
</svg>